<svg preserveAspectRatio="xMidYMid meet" data-bbox="7.1 32.6 285.8 62.9" viewBox="7.1 32.6 285.8 62.9" xmlns="http://www.w3.org/2000/svg" data-type="color" role="presentation" aria-hidden="true" aria-label="">
    <g>
        <path d="M81.7 87h-1.3l-.3-1.2-.6-.3c-.3-.1-.6-.1-.9-.1-.5 0-.8.1-1.1.3-.3.2-.4.5-.4.7s.1.6.4.7.7.4 1.4.6c.9.3 1.7.6 2.1 1 .5.4.7 1 .7 1.7s-.3 1.3-.8 1.7c-.6.5-1.4.6-2.3.6-.6 0-1.3-.1-1.8-.4-.6-.3-1-.6-1.4-.9v-1.7h1.3l.2 1.2c.2.2.4.3.7.4.3.1.6.2 1 .2.5 0 .8-.1 1.1-.3.3-.2.4-.5.4-.7 0-.4-.1-.6-.4-.8-.3-.2-.6-.4-1.2-.6-1-.3-1.7-.6-2.3-1-.6-.4-.8-.9-.8-1.7 0-.7.3-1.3.9-1.7.6-.5 1.3-.6 2.2-.6.6 0 1.3.1 1.8.3.6.2 1 .5 1.4.8V87z" fill="#ffffff" data-color="1"></path>
        <path d="M85.5 92.8c-.9 0-1.7-.3-2.2-.9-.6-.6-.8-1.4-.8-2.2v-.3c0-.9.3-1.7.7-2.3.5-.6 1.2-.9 2.1-.9.8 0 1.6.3 2 .7.5.6.7 1.2.7 2.1v1h-3.8c0 .5.2.7.5 1 .3.3.6.4 1 .4s.7 0 .9-.1c.3-.1.6-.2.8-.4L88 92c-.3.2-.6.4-1 .6-.5.2-.9.2-1.5.2zm-.2-5.2c-.3 0-.6.1-.7.4-.2.3-.3.6-.4.9h2.1v-.2c0-.4-.1-.6-.3-.9 0-.1-.3-.2-.7-.2z" fill="#ffffff" data-color="1"></path>
        <path d="m89 91.7.8-.2v-3.9l-.9-.2v-1h2.5l.1.9c.2-.4.4-.6.6-.7.3-.2.6-.3.8-.3h.3c.1 0 .2 0 .3.1l-.3 1.6h-.7c-.3 0-.5.1-.6.2s-.3.3-.4.5v3.1l.8.2v1h-3.4l.1-1.3z" fill="#ffffff" data-color="1"></path>
        <path d="m96.6 87.4-.6.1.8 2.8.1.6.1-.6.8-2.8-.6-.1v-1h2.8v1l-.6.1-1.8 5.2H96l-1.8-5.2-.6-.1v-1h2.8v1h.2z" fill="#ffffff" data-color="1"></path>
        <path d="m100.8 91.7.8-.2v-3.9l-.9-.2v-1h2.7v5.1l.8.2v1h-3.4v-1zm2.5-6.9h-1.7v-1.3h1.7v1.3z" fill="#ffffff" data-color="1"></path>
        <path d="M107.7 91.5c.3 0 .6-.1.7-.3s.3-.5.3-.7h1.6c0 .6-.2 1.2-.7 1.7-.5.5-1.1.6-1.8.6-.9 0-1.7-.3-2.2-.9-.6-.6-.7-1.4-.7-2.3v-.2c0-.9.3-1.7.8-2.3.6-.6 1.3-.9 2.3-.9.6 0 1 .1 1.4.3.4.2.7.4 1 .6v1.7H109l-.3-1c-.1-.1-.2-.1-.3-.2-.1-.1-.3-.1-.5-.1-.5 0-.8.2-1 .6-.2.4-.3.8-.3 1.4v.2c0 .6.1 1 .3 1.4s.4.4.8.4zm.5 1.2-.1.4c.3 0 .5.2.6.3.2.2.3.4.3.7 0 .5-.2.7-.6 1-.4.3-.8.4-1.6.4v-.9c.2 0 .4 0 .5-.1.1-.1.2-.2.2-.4s-.1-.3-.2-.4-.4-.1-.6-.1l.2-.8 1.3-.1z" fill="#ffffff" data-color="1"></path>
        <path d="M111 89.5c0-.9.3-1.7.8-2.3.6-.6 1.3-.9 2.2-.9.9 0 1.7.3 2.2.9s.8 1.4.8 2.3v.1c0 .9-.3 1.7-.8 2.3s-1.3.9-2.2.9c-.9 0-1.7-.3-2.2-.9s-.8-1.4-.8-2.4zm1.8.1c0 .6.1 1 .3 1.4.2.4.6.6 1 .6s.7-.2 1-.6c.2-.4.3-.8.3-1.4v-.1c0-.6-.1-1-.3-1.4-.2-.4-.6-.6-1-.6s-.7.2-1 .6c-.3.4-.3.9-.3 1.5z" fill="#ffffff" data-color="1"></path>
        <path d="M123 88.6h-1.2l-.2-.8c-.1-.1-.3-.2-.5-.3s-.4-.1-.6-.1c-.3 0-.6.1-.7.2-.2.1-.3.3-.3.6 0 .2.1.4.3.5s.6.3 1 .4c.8.2 1.4.4 1.7.7.4.3.6.7.6 1.3s-.3 1-.7 1.4c-.5.4-1.1.6-1.9.6-.5 0-.9-.1-1.4-.2-.4-.2-.7-.4-1.1-.6v-1.5h1.2l.3.8c.1.1.3.2.5.2s.4.1.6.1c.4 0 .6-.1.8-.2.2-.1.3-.3.3-.6 0-.2-.1-.4-.3-.5-.2-.1-.6-.3-1-.4-.7-.2-1.3-.4-1.7-.6-.4-.3-.6-.7-.6-1.2 0-.6.2-1 .6-1.4s1.1-.6 1.8-.6c.5 0 .9.1 1.4.2.5.1.8.3 1 .6v1.4z" fill="#ffffff" data-color="1"></path>
        <path d="M130 92.8c-.9 0-1.7-.3-2.2-.9-.6-.6-.8-1.4-.8-2.2v-.3c0-.9.3-1.7.7-2.3.5-.6 1.2-.9 2.1-.9.8 0 1.6.3 2 .7.5.6.7 1.2.7 2.1v1h-3.8c0 .5.2.7.5 1 .3.3.6.4 1 .4s.7 0 .9-.1c.3-.1.6-.2.8-.4l.5 1.1c-.3.2-.6.4-1 .6-.4.2-.9.2-1.4.2zm-.1-5.2c-.3 0-.6.1-.7.4-.2.3-.3.6-.4.9h2.1v-.2c0-.4-.1-.6-.3-.9-.2-.1-.4-.2-.7-.2z" fill="#ffffff" data-color="1"></path>
        <path d="m144.5 86.4-2.3 6.3H141l-2.3-6.3.2 3.8v1.4l.9.2v1h-3.6v-1l.9-.2v-6.1l-.9-.2v-1h3.1l2.2 6.3 2.2-6.3h3.1v1l-.9.2v6.1l.9.2v1h-3.6v-1l.9-.2v-1.4l.4-3.8z" fill="#ffffff" data-color="1"></path>
        <path d="M147.7 89.5c0-.9.3-1.7.8-2.3.6-.6 1.3-.9 2.2-.9.9 0 1.7.3 2.2.9.6.6.8 1.4.8 2.3v.1c0 .9-.3 1.7-.8 2.3-.6.6-1.3.9-2.2.9-.9 0-1.7-.3-2.2-.9s-.8-1.4-.8-2.4zm1.7.1c0 .6.1 1 .3 1.4.2.4.6.6 1 .6s.7-.2 1-.6c.2-.4.3-.8.3-1.4v-.1c0-.6-.1-1-.3-1.4-.2-.4-.6-.6-1-.6s-.7.2-1 .6c-.3.4-.3.9-.3 1.5z" fill="#ffffff" data-color="1"></path>
        <path d="m154.3 91.7.8-.2v-3.9l-.9-.2v-1h2.5l.1.9c.2-.4.5-.6.8-.7.3-.2.6-.3 1-.3.6 0 1.1.2 1.5.6.4.4.6 1 .6 1.9v2.8l.8.2v1h-3.2v-1l.7-.2v-2.8c0-.5-.1-.7-.3-.9-.2-.2-.5-.3-.8-.3-.2 0-.5 0-.6.2s-.4.2-.5.4v3.4l.7.2v1h-3.2v-1.1z" fill="#ffffff" data-color="1"></path>
        <path d="m162 91.7.8-.2v-3.9l-.9-.2v-1h2.7v5.1l.8.2v1H162v-1zm2.5-6.9h-1.7v-1.3h1.7v1.3z" fill="#ffffff" data-color="1"></path>
        <path d="M168.5 84.8v1.6h1.1v1.2h-1.1v3.2c0 .3.1.5.2.6.1.1.3.2.4.2h.3c.1 0 .2 0 .3-.1l.2 1.3c-.2.1-.4.1-.6.1h-.6c-.6 0-1-.2-1.4-.5-.4-.3-.5-.8-.5-1.6v-3.2h-.9v-1.2h.9v-1.6h1.7z" fill="#ffffff" data-color="1"></path>
        <path d="M170.4 89.5c0-.9.3-1.7.8-2.3.6-.6 1.3-.9 2.2-.9s1.7.3 2.2.9c.6.6.8 1.4.8 2.3v.1c0 .9-.3 1.7-.8 2.3-.6.6-1.3.9-2.2.9s-1.7-.3-2.2-.9c-.5-.6-.8-1.4-.8-2.4zm1.8.1c0 .6.1 1 .3 1.4s.6.6 1 .6.7-.2 1-.6c.2-.4.3-.8.3-1.4v-.1c0-.6-.1-1-.3-1.4-.2-.4-.6-.6-1-.6s-.7.2-1 .6c-.2.4-.3.9-.3 1.5z" fill="#ffffff" data-color="1"></path>
        <path d="m177.3 91.7.8-.2v-3.9l-.9-.2v-1h2.5l.1.9c.2-.4.4-.6.6-.7.3-.2.6-.3.8-.3h.3c.1 0 .2 0 .3.1l-.2 1.6h-.7c-.3 0-.5.1-.6.2s-.3.3-.4.5v3.1l.8.2v1h-3.4v-1.3z" fill="#ffffff" data-color="1"></path>
        <path d="M186.3 92.7c-.1-.1-.1-.2-.1-.4 0-.1-.1-.2-.1-.4-.2.3-.5.5-.7.6s-.6.2-1 .2c-.6 0-1.1-.2-1.5-.6-.4-.4-.6-.8-.6-1.4 0-.6.3-1.1.7-1.4.5-.4 1.2-.5 2.1-.5h.9v-.5c0-.3-.1-.6-.3-.7s-.5-.3-.8-.3c-.2 0-.4 0-.6.1-.2 0-.3.1-.4.2l-.1.6h-1.3V87c.3-.2.6-.4 1.1-.6s.8-.2 1.3-.2c.8 0 1.5.2 1.9.6s.7.9.7 1.7v3.2l.6.1v1l-1.8-.1zm-1.5-1.1c.3 0 .5-.1.7-.2.3-.1.4-.3.5-.5v-1h-.9c-.4 0-.6.1-.8.3-.2.2-.3.4-.3.6 0 .2.1.4.2.6.2.1.4.2.6.2z" fill="#ffffff" data-color="1"></path>
        <path d="M188.7 87.4v-1h2.5l.1.8c.2-.3.5-.6.7-.7.3-.2.6-.3 1.1-.3.4 0 .7.1 1 .3.3.2.6.5.6.8.2-.4.5-.6.7-.8.3-.2.6-.3 1.1-.3.6 0 1.1.2 1.5.6.4.5.6 1.1.6 2v2.7l.8.2v1h-3.3v-1l.7-.2v-2.7c0-.5-.1-.8-.3-1s-.4-.3-.7-.3c-.3 0-.5.1-.6.2l-.5.5v3.3l.7.2v1h-3.1v-1l.7-.2v-2.7c0-.5-.1-.8-.3-1s-.4-.3-.7-.3c-.3 0-.5 0-.6.1s-.3.2-.5.4v3.4l.7.2v1h-3.3v-1l.8-.2v-3.9l-.4-.1z" fill="#ffffff" data-color="1"></path>
        <path d="M203.1 92.8c-.9 0-1.7-.3-2.2-.9-.6-.6-.8-1.4-.8-2.2v-.3c0-.9.3-1.7.7-2.3.6-.6 1.2-.9 2.1-.9.8 0 1.6.3 2 .7s.7 1.2.7 2.1v1h-3.8c0 .5.2.7.5 1 .3.3.6.4 1 .4s.7 0 .9-.1c.3-.1.6-.2.8-.4l.5 1.1c-.3.2-.6.4-1 .6-.4.2-.9.2-1.4.2zm-.2-5.2c-.3 0-.6.1-.7.4-.2.3-.3.6-.4.9h2.1v-.2c0-.4-.1-.6-.3-.9 0-.1-.3-.2-.7-.2z" fill="#ffffff" data-color="1"></path>
        <path d="m206.4 91.7.8-.2v-3.9l-.9-.2v-1h2.5l.1.9c.2-.4.5-.6.8-.7.3-.2.6-.3 1-.3.6 0 1.1.2 1.5.6.4.4.6 1 .6 1.9v2.8l.8.2v1h-3.3v-1l.7-.2v-2.8c0-.5-.1-.7-.3-.9s-.5-.3-.8-.3c-.2 0-.5 0-.6.2s-.4.2-.5.4v3.4l.7.2v1h-3.2l.1-1.1z" fill="#ffffff" data-color="1"></path>
        <path d="M216.7 84.8v1.6h1.1v1.2h-1.1v3.2c0 .3.1.5.2.6.1.1.3.2.4.2h.3c.1 0 .2 0 .3-.1l.2 1.3c-.2.1-.4.1-.6.1h-.6c-.6 0-1-.2-1.4-.5-.4-.3-.5-.8-.5-1.6v-3.2h-1v-1.2h.9v-1.6h1.8z" fill="#ffffff" data-color="1"></path>
        <path d="M218.6 89.5c0-.9.3-1.7.8-2.3.6-.6 1.3-.9 2.2-.9.9 0 1.7.3 2.2.9.6.6.8 1.4.8 2.3v.1c0 .9-.3 1.7-.8 2.3-.6.6-1.3.9-2.2.9-.9 0-1.7-.3-2.2-.9-.5-.6-.8-1.4-.8-2.4zm1.7.1c0 .6.1 1 .3 1.4s.6.6 1 .6c.5 0 .7-.2 1-.6.2-.4.3-.8.3-1.4v-.1c0-.6-.1-1-.3-1.4-.2-.4-.6-.6-1-.6-.5 0-.7.2-1 .6-.2.4-.3.9-.3 1.5z" fill="#ffffff" data-color="1"></path>
        <path fill="#b52c2e" d="M285.5 92.8h-56.1L222 48.2h70.9" data-color="2"></path>
        <path fill="#b52c2e" d="M14.5 92.8h56.1L78 48.2H7.1" data-color="2"></path>
        <path fill="#c63645" d="M267.1 77.1H33.5l-7.4-44.5h248.4" data-color="3"></path>
        <path d="M68.9 42.5c3.1 0 5.5.5 7.2 1.6 1.7 1.1 2.6 2.7 2.6 4.8 0 1.1-.3 2.1-1 2.9s-1.6 1.5-2.8 1.9c1.6.3 2.8.9 3.6 1.9.8 1 1.2 2.1 1.2 3.4 0 2.2-.8 3.9-2.5 5.1-1.7 1.2-4 1.7-7.1 1.7H57.2V63l2.8-.5V45.8l-2.8-.5v-2.8h11.7zm-3.6 9.8h3.8c1.4 0 2.5-.3 3.3-.8.8-.5 1.1-1.3 1.1-2.3 0-1.1-.4-1.9-1.1-2.4-.8-.5-1.9-.8-3.4-.8h-3.6v6.3zm0 3.2v6.8h4.9c1.4 0 2.5-.3 3.2-.8.7-.5 1.1-1.3 1.1-2.4 0-1.1-.3-2-.9-2.6-.6-.6-1.6-.9-3-.9h-5.3z" fill="#ffffff" data-color="1"></path>
        <path d="M81.7 65.9v-2.8l2.8-.5V45.8l-2.8-.5v-2.8h10.9v2.8l-2.8.5v16.5h7.4l.3-3h4v6.6H81.7z" fill="#ffffff" data-color="1"></path>
        <path d="M103.4 45.3v-2.8h10.9v2.8l-2.8.5v16.8l2.8.5v2.8h-10.9v-2.8l2.8-.5V45.8l-2.8-.5z" fill="#ffffff" data-color="1"></path>
        <path d="M143.2 42.5v2.8l-2.8.5V66h-5.3l-10.6-15.8h-.1v12.5l2.8.5V66h-10.9v-2.8l2.8-.5V45.8l-2.8-.5v-2.8h8.1L135 58.3h.1V45.8l-2.8-.5v-2.8h10.9z" fill="#ffffff" data-color="1"></path>
        <path d="M168.1 42.5v6.3h-4l-.2-2.6h-4.8v16.5l2.8.5V66H151v-2.8l2.8-.5V46.1H149l-.2 2.6h-4v-6.3h23.3z" fill="#ffffff" data-color="1"></path>
        <path d="M169.8 45.3v-2.8h10.9v2.8l-2.8.5v6.8h10.7v-6.8l-2.8-.5v-2.8h10.9v2.8l-2.8.5v16.8l2.8.5v2.8h-10.9v-2.8l2.8-.5v-6.4h-10.7v6.4l2.8.5v2.8h-10.9v-2.8l2.8-.5V45.8l-2.8-.5z" fill="#ffffff" data-color="1"></path>
        <path d="M215.7 55.6h-8.9v6.7h8.5l.2-2.8h4v6.4h-20.8v-2.8l2.8-.5V45.8l-2.8-.5v-2.8h20.8v6.4h-4l-.2-2.8h-8.4V52h8.9v3.6z" fill="#ffffff" data-color="1"></path>
        <path d="m222.3 63.1 2.8-.5V45.8l-2.8-.5v-2.8h10.8v2.8l-2.7.5V52h2.3l5.1-6.6-1.6-.2v-2.8h10.4v2.8l-2.9.4-6.5 7.7 7.3 9.3 2.6.4v2.8h-10.4V63l1.6-.2-5.1-6.8h-2.9v6.5l2.7.5v2.8h-10.8v-2.7z" fill="#ffffff" data-color="1"></path>
    </g>
</svg>