<svg preserveAspectRatio="xMidYMid meet" data-bbox="17 74.8 1046 930.4" viewBox="17 74.8 1046 930.4" xmlns="http://www.w3.org/2000/svg" data-type="color" role="presentation" aria-hidden="true" aria-label="">
    <g>
        <path fill="#b52c2e" d="M1035.8 758h-205l-27.2-163.1H1063" data-color="1"></path>
        <path fill="#b52c2e" d="M44.2 758h205l27.2-163.1H17" data-color="1"></path>
        <path d="M543 998.9c-2.1 0-4.2-1.1-5.3-2.9l-19.3-29.6c-7.3-11.1-33.9-42.8-58.4-42.8-81.8 0-229.6-37.4-264.6-177.4-15.8-63.4 2.3-157.2 18.3-240.1l.1-.4c8.4-43.6 16.4-84.7 15.2-104.1-1.9-33.1-55.2-69.7-80.7-82.3l-28.7-14.2c-1.8-.9-3.1-2.6-3.5-4.6-.3-2 .3-4.1 1.7-5.5l110.3-112.4c1.2-1.2 2.9-1.9 4.6-1.9.5 0 1.1.1 1.6.2l13 3.4c11.2 2.9 21.6 4.4 31.1 4.4 57.8 0 68.3-58.6 68.7-61.1l2.4-14.2c.4-2.4 2.1-4.4 4.5-5.1l13.8-4.1c3.2-.9 78.3-23.1 175.4-23.1 102.7 0 173 22.3 176 23.2l13.4 4.3c2.3.7 3.9 2.7 4.3 5l2.3 13.9c1.1 6.2 12.6 61 68.8 61 9.5 0 19.9-1.5 31.1-4.4l13-3.4c.5-.1 1.1-.2 1.6-.2 1.7 0 3.3.7 4.6 1.9L968.2 295c1.4 1.5 2.1 3.5 1.7 5.5-.3 2-1.6 3.7-3.5 4.6l-28.7 14.2c-25.5 12.6-78.7 49.4-80.7 82.3-1.1 19.5 6.8 60.6 15.2 104.2v.2c16 82.9 34.2 176.8 18.3 240.2-35 140-182.8 177.4-264.6 177.4-23 0-49.3 28.8-58.4 42.7L548.4 996c-1.2 1.8-3.2 2.9-5.4 2.9" fill="#bcb08b" data-color="2"></path>
        <path d="M548.8 74.8c-98 0-174 22.4-177.2 23.3l-13.8 4.1c-4.7 1.4-8.1 5.3-8.9 10.1l-2.4 14.2c-.4 2.3-10 55.7-62.5 55.7-8.9 0-18.8-1.4-29.5-4.2l-13-3.4c-1.1-.3-2.1-.4-3.2-.4-3.4 0-6.7 1.3-9.1 3.8L119.1 290.6c-2.9 2.9-4.2 7-3.5 11.1.7 4 3.3 7.5 6.9 9.3l28.7 14.2c8.9 4.4 28.7 15.9 46.5 31.4 19 16.5 29.9 32.7 30.7 45.6 1.1 18.6-7.1 61.3-15.1 102.6l-.1.3v.1C197.1 588.7 178.8 683.3 195 748c35.9 143.6 187 182 270.7 182 20.1 0 44.4 26.9 53.1 39.9l19.3 29.5c2.4 3.6 6.4 5.8 10.7 5.8 4.3 0 8.3-2.2 10.7-5.8l19.4-29.6c8.2-12.5 32.9-39.9 53.1-39.9 83.6 0 234.8-38.4 270.8-182.2 16.2-64.7-2.1-159.4-18.2-242.9v-.2c-8-41.3-16.2-84-15.1-102.6.7-12.8 11.6-28.9 30.7-45.5 17.8-15.5 37.6-27.1 46.5-31.5l28.7-14.1c3.7-1.8 6.2-5.3 6.9-9.3.7-4-.6-8.1-3.5-11.1L868.3 178.2c-2.4-2.5-5.7-3.8-9.1-3.8-1.1 0-2.1.1-3.2.4l-13 3.4c-10.6 2.8-20.6 4.2-29.5 4.2-21.3 0-38-8.5-49.6-25.2-9.5-13.7-12.5-28.6-12.9-30.6l-2.3-13.8c-.8-4.7-4.1-8.6-8.6-10l-13.4-4.3c-3-1.2-74.2-23.7-177.9-23.7m0 12.7c102.1 0 171.1 22 174 22.9l13.4 4.3 2.3 13.9c1.2 6.7 13.7 66.4 75 66.4 10 0 21-1.5 32.7-4.6l13-3.4 110.3 112.4-28.7 14.2c-21.1 10.5-82 49.1-84.2 87.6-1.2 20.3 6.9 61.9 15.4 106 15.9 82.2 33.9 175.4 18.4 237.4C856.3 880.8 712 917.2 632 917.2c-27.6 0-56 33.8-63.7 45.6l-19.4 29.6-19.3-29.6c-8.4-12.7-36.3-45.6-63.8-45.6-80 0-224.3-36.4-258.4-172.6-15.5-62 2.5-155.2 18.4-237.4 8.5-44.1 16.6-85.7 15.4-106-2.3-38.8-63.1-77.2-84.2-87.6l-28.7-14.2L238.6 187l13 3.4c11.7 3 22.7 4.6 32.7 4.6 63.1 0 74.6-63.7 75-66.4l2.4-14.2 13.8-4.1c2.8-.9 76.8-22.8 173.3-22.8z" fill="#ffffff" data-color="3"></path>
        <path d="M826.1 515v-.2c-1.7-8.6-3.3-17-4.8-25.1-7.1-37.8-12.4-69.9-11.2-90.8 3-50.9 55.8-91 86.1-110l-55.6-56.6c-11.4 2.3-22.4 3.5-32.8 3.5-62.3 0-100.5-43.3-112.8-89.3-21.3-5.7-76.7-18.2-152-18.2-71.7 0-129.9 12.8-152.1 18.4-2.8 9.8-8.1 24.3-17.6 38.7-21.6 32.5-55.3 50.4-95 50.4-10.4 0-21.4-1.2-32.8-3.5L190 288.9c30.3 18.9 83.1 58.9 86.1 110 1.2 20.9-4.1 53-11.2 90.8-1.5 8.1-3.1 16.5-4.8 25l-.1.4c-9.8 50.7-20.4 105.7-23 152.6-1.4 25.4-.5 48.4 4.2 67 12.2 48.6 42.8 86 91.2 111.1 54.8 28.4 111.5 30.6 127.6 30.6 36.4 0 66.3 26.2 83.1 45.2 16.9-18.9 46.9-45.2 83.1-45.2 16.1 0 72.8-2.2 127.6-30.6 48.4-25.1 79-62.5 91.2-111.1 4.4-17.5 5.5-38.8 4.4-62.3-2.2-47.9-13.2-105-23.3-157.4" fill="#213940" data-color="4"></path>
        <path d="M585.6 244.1v-5c0-3.1-2.1-5.6-4.7-5.6h-2.4l-.2-6.8-10.3-11.3v-36.9l7.8-6.6c2.4-.3 4.3-2.5 4.3-5.2v-12.5c0-2.9-2.2-5.3-4.8-5.3h-8.7c-2.7 0-4.8 2.4-4.8 5.3v2h-10.7v-2c0-2.9-2.2-5.3-4.8-5.3h-4.4v100.7H581c2.5.1 4.6-2.4 4.6-5.5" fill="#bcb08b" data-color="2"></path>
        <path d="M429.3 269.3c0-.9.2-1.9.7-2.9.5-1 1.1-1.8 1.8-2.5l2 1.1c-.4.6-.6 1.3-.8 2-.2.7-.3 1.5-.3 2.3v2.7h-3.4v-2.7zm4.7 0c0-.9.2-1.9.7-2.9.5-1 1.1-1.8 1.8-2.5l2 1.1c-.4.6-.6 1.3-.8 2-.2.7-.3 1.5-.3 2.3v2.7H434v-2.7z" fill="#fffbc6" data-color="5"></path>
        <path d="M439 268.2v-2.4h8.3v2.4l-2.1.4V283l2.1.4v2.4H439v-2.4l2.1-.4v-14.4l-2.1-.4z" fill="#fffbc6" data-color="5"></path>
        <path d="m448 283.4 1.9-.4v-9.2l-2.1-.4V271h5.9l.2 2.1c.5-.8 1.1-1.4 1.8-1.8.7-.4 1.5-.6 2.4-.6 1.5 0 2.7.5 3.5 1.4.8.9 1.3 2.4 1.3 4.5v6.5l1.9.4v2.4h-7.7v-2.4l1.7-.4v-6.5c0-1-.2-1.7-.6-2.1s-1-.6-1.8-.6c-.5 0-1 .1-1.4.3-.4.2-.8.5-1.1.9v8l1.6.4v2.4H448v-2.5z" fill="#fffbc6" data-color="5"></path>
        <path d="M489.9 283.6c-.7.6-1.6 1.2-2.9 1.7-1.2.5-2.8.8-4.7.8-2.7 0-4.9-.9-6.6-2.7-1.7-1.8-2.5-4.2-2.5-7.1v-.7c0-3 .8-5.4 2.5-7.3 1.7-1.9 3.9-2.8 6.6-2.8 1.6 0 3 .3 4.3.8 1.3.5 2.4 1.2 3.2 2v4h-3l-.6-2.7c-.4-.3-.9-.6-1.5-.8-.6-.2-1.3-.3-2.1-.3-1.8 0-3.1.6-4.1 1.9-1 1.3-1.5 3-1.5 5.1v.7c0 2 .5 3.7 1.4 4.9 1 1.2 2.3 1.8 4.1 1.8.8 0 1.5-.1 2-.2s.9-.3 1.2-.5V279l-2.9-.2V276h6.9v7.6z" fill="#fffbc6" data-color="5"></path>
        <path d="M492.5 278.3c0-2.2.6-4 1.9-5.5 1.2-1.4 3-2.1 5.2-2.1s3.9.7 5.2 2.1c1.2 1.4 1.9 3.2 1.9 5.5v.3c0 2.2-.6 4.1-1.9 5.5-1.2 1.4-3 2.1-5.1 2.1-2.2 0-3.9-.7-5.2-2.1-1.2-1.4-1.9-3.2-1.9-5.5v-.3zm4 .2c0 1.4.2 2.5.7 3.3.5.8 1.2 1.2 2.3 1.2 1 0 1.8-.4 2.3-1.2.5-.8.7-1.9.7-3.3v-.3c0-1.3-.2-2.4-.7-3.2-.5-.8-1.3-1.3-2.3-1.3s-1.8.4-2.3 1.3c-.5.8-.7 1.9-.7 3.2v.3z" fill="#fffbc6" data-color="5"></path>
        <path d="M518 284c-.5.7-1 1.2-1.7 1.6-.6.4-1.4.5-2.2.5-1.8 0-3.3-.7-4.3-2s-1.5-3.1-1.5-5.3v-.3c0-2.4.5-4.2 1.5-5.7 1-1.4 2.5-2.2 4.3-2.2.7 0 1.4.2 2 .5s1.1.8 1.6 1.4v-5.3l-2.1-.4v-2.4h6.1V283l1.9.4v2.4h-5.4l-.2-1.8zm-5.6-5.2c0 1.3.2 2.3.7 3.1.4.7 1.2 1.1 2.1 1.1.6 0 1.1-.1 1.5-.4.4-.2.8-.6 1.1-1v-6.3c-.3-.5-.6-.8-1.1-1.1s-.9-.4-1.5-.4c-1 0-1.7.4-2.1 1.3-.5.9-.7 2-.7 3.4v.3z" fill="#fffbc6" data-color="5"></path>
        <path d="m558.1 268.2-1.7.2-4.1 17.4h-3.7l-3.7-13.2h-.1l-3.7 13.2h-3.7l-4.1-17.4-1.6-.2v-2.4h7.4v2.4l-1.8.3 2.3 11h.1l3.8-13.8h3l3.8 13.8h.1l2.3-11-1.8-.3v-2.4h7.4v2.4z" fill="#fffbc6" data-color="5"></path>
        <path d="M565.7 286.1c-2.2 0-3.9-.7-5.2-2.1-1.3-1.4-1.9-3.1-1.9-5.3v-.6c0-2.2.6-4 1.8-5.5 1.2-1.4 2.9-2.1 4.9-2.1 2 0 3.6.6 4.7 1.8 1.1 1.2 1.7 2.9 1.7 4.9v2.2h-8.9v.1c.1 1 .4 1.8 1 2.4.6.6 1.4 1 2.4 1 .9 0 1.6-.1 2.2-.3.6-.2 1.2-.5 1.9-.8l1.1 2.5c-.6.5-1.4.9-2.4 1.2-1 .5-2.1.6-3.3.6zm-.3-12.3c-.7 0-1.3.3-1.8.9-.4.6-.7 1.3-.8 2.2v.1h4.9v-.4c0-.9-.2-1.5-.6-2-.3-.6-.9-.8-1.7-.8z" fill="#fffbc6" data-color="5"></path>
        <path d="M598.3 265.8v5.3h-3.1l-.2-2.2h-3.7V283l2.1.4v2.4h-8.3v-2.4l2.1-.4v-14.1h-3.7l-.2 2.2h-3.1v-5.3h18.1z" fill="#fffbc6" data-color="5"></path>
        <path d="m598.8 283.4 1.9-.4v-9.2l-2.1-.4V271h5.9l.2 2.2c.3-.8.8-1.4 1.4-1.8.6-.4 1.2-.6 1.9-.6h.7c.3 0 .4.1.6.1l-.4 3.7h-1.7c-.6 0-1.1.1-1.5.3-.4.2-.7.6-.9 1v7.2l1.9.4v2.4h-7.9v-2.5z" fill="#fffbc6" data-color="5"></path>
        <path d="M620.5 284c-.5.7-1.1 1.2-1.8 1.6-.7.4-1.5.6-2.4.6-1.6 0-2.8-.5-3.7-1.5-.9-1-1.3-2.6-1.3-4.7v-6.2l-1.6-.4V271h5.6v9c0 1.1.2 1.9.5 2.3.4.5.9.7 1.6.7.6 0 1.2-.1 1.6-.3.5-.2.8-.5 1.1-.9v-8l-1.8-.4V271h5.8v12l1.8.4v2.4h-5.3l-.1-1.8z" fill="#fffbc6" data-color="5"></path>
        <path d="M639.4 276.1h-2.7l-.4-1.9c-.3-.2-.6-.4-1-.6-.4-.1-.9-.2-1.4-.2-.7 0-1.3.2-1.7.5-.4.3-.6.7-.6 1.2s.2.8.6 1.1c.4.3 1.2.6 2.4.8 1.8.4 3.2.9 4.1 1.6.9.7 1.3 1.7 1.3 2.9 0 1.3-.6 2.4-1.7 3.3-1.2.9-2.7 1.3-4.6 1.3-1.1 0-2.2-.2-3.2-.5s-1.8-.8-2.6-1.4v-3.3h2.8l.6 1.9c.2.2.6.4 1 .4.4.1.8.1 1.3.1.8 0 1.4-.1 1.9-.4.4-.3.6-.7.6-1.2 0-.4-.2-.8-.6-1.1-.4-.3-1.2-.6-2.4-.9-1.8-.4-3.1-.9-4-1.6-.9-.7-1.3-1.7-1.3-2.9s.5-2.3 1.5-3.2c1-.9 2.5-1.4 4.4-1.4 1.2 0 2.3.2 3.3.5s1.8.7 2.4 1.2v3.8z" fill="#fffbc6" data-color="5"></path>
        <path d="M647.6 267.3v3.7h2.6v2.8h-2.6v7.6c0 .6.1 1 .4 1.2.2.2.6.4 1 .4h.7c.2 0 .4-.1.7-.1l.3 2.9c-.5.1-.9.2-1.3.3s-.9.1-1.4.1c-1.4 0-2.5-.4-3.2-1.1-.7-.8-1.1-2-1.1-3.6v-7.6h-2.2v-2.8h2.2v-3.7h3.9z" fill="#fffbc6" data-color="5"></path>
        <path d="M656.6 267c0 .9-.2 1.9-.7 2.9-.5 1-1.1 1.8-1.8 2.5l-2-1.1c.4-.6.6-1.3.8-2 .2-.7.3-1.5.3-2.3v-2.6h3.4v2.6zm4.7 0c0 .9-.2 1.9-.7 2.9s-1.1 1.8-1.8 2.5l-2-1.1c.4-.6.6-1.3.8-2 .2-.7.3-1.5.3-2.3v-2.6h3.4v2.6z" fill="#fffbc6" data-color="5"></path>
        <path fill="#c63645" d="M968.5 688.1H113.7L86.5 525h909.2" data-color="6"></path>
        <path d="M243.3 561.3c11.3 0 20.2 2 26.5 5.9 6.4 3.9 9.5 9.8 9.5 17.6 0 4-1.2 7.5-3.5 10.7-2.4 3.1-5.8 5.5-10.3 7.1 5.8 1.1 10.1 3.5 13 7.1 2.9 3.6 4.3 7.8 4.3 12.6 0 8.2-3 14.4-9.1 18.7-6.1 4.2-14.7 6.3-25.9 6.3h-47.4V637l10.3-1.8v-61.7l-10.3-1.8v-10.4h42.9zm-13.3 36h13.9c5.2 0 9.1-.9 11.9-2.8 2.8-1.9 4.2-4.6 4.2-8.3 0-4-1.4-6.9-4.2-8.8-2.8-1.9-7-2.8-12.5-2.8H230v22.7zm0 11.9V634h17.8c5.1 0 9-1 11.7-3 2.7-2 4-4.9 4-8.8 0-4.2-1.1-7.4-3.4-9.6-2.3-2.2-5.9-3.3-10.8-3.3H230z" fill="#ffffff" data-color="3"></path>
        <path d="M290.1 647.2v-10.3l10.3-1.8v-61.7l-10.3-1.8v-10.4H330v10.4l-10.3 1.8V634h27.2l.9-10.8h14.8v24h-72.5z" fill="#ffffff" data-color="3"></path>
        <path d="M369.4 571.6v-10.4h39.9v10.4l-10.3 1.8v61.7l10.3 1.8v10.3h-39.9v-10.3l10.3-1.8v-61.7l-10.3-1.8z" fill="#ffffff" data-color="3"></path>
        <path d="M515.1 561.3v10.4l-10.3 1.8v73.8h-19.3l-38.9-57.8-.4.1v45.7l10.3 1.8v10.3h-39.9v-10.3l10.3-1.8v-61.7l-10.3-1.8v-10.4h29.6l38.9 57.8.4-.1v-45.6l-10.3-1.8v-10.4h39.9z" fill="#ffffff" data-color="3"></path>
        <path d="M606.1 561.3v22.9h-14.8l-.8-9.6h-17.7v60.5l10.3 1.8v10.3h-40v-10.3l10.3-1.8v-60.5h-17.7l-.8 9.6h-14.8v-22.9h86z" fill="#ffffff" data-color="3"></path>
        <path d="M612.4 571.6v-10.4h39.9v10.4l-10.3 1.8v24.8h39.3v-24.8l-10.3-1.8v-10.4h39.9v10.4l-10.3 1.8v61.7l10.3 1.8v10.3H671v-10.3l10.3-1.8v-23.6H642v23.6l10.3 1.8v10.3h-39.9v-10.3l10.3-1.8v-61.7l-10.3-1.8z" fill="#ffffff" data-color="3"></path>
        <path d="M780.5 609.4h-32.6V634H779l.9-10.3h14.7v23.5h-76.2v-10.3l10.3-1.8v-61.7l-10.3-1.8v-10.4h76.1v23.5h-14.8l-.9-10.3H748V596h32.6v13.4z" fill="#ffffff" data-color="3"></path>
        <path d="m804.8 636.9 10.3-1.8v-61.7l-10.3-1.8v-10.4h39.4v10.4l-9.8 1.8v23h8.4l18.5-24-5.7-.7v-10.4h38.2v10.4l-10.5 1.6-23.7 28.2 26.6 33.9 9.7 1.5v10.3h-38.2v-10.3l6-.7-18.5-24.8h-10.8v23.8l9.8 1.8v10.3h-39.4v-10.4z" fill="#ffffff" data-color="3"></path>
        <path d="M496.6 244.1v-5c0-3.1 2.2-5.6 4.9-5.6h2.5l.2-6.8 10.7-11.3v-36.9l-8.1-6.6c-2.5-.3-4.4-2.5-4.4-5.2v-12.5c0-2.9 2.2-5.3 5-5.3h9c2.8 0 5 2.4 5 5.3v2h11.1v-2c0-2.9 2.2-5.3 5-5.3h4.6v100.7h-40.4c-2.9.1-5.1-2.4-5.1-5.5" fill="#bcb08b" data-color="2"></path>
        <path d="M345.3 353.3c0-1.4-.4-2.6-1.1-3.4-.7-.8-2.1-1.7-4-2.5-3.7-1.3-6.5-2.8-8.4-4.5-1.9-1.7-2.8-4-2.8-7s1.1-5.4 3.2-7.3c2.1-1.9 4.9-2.8 8.2-2.8 3.5 0 6.3 1 8.5 3s3.2 4.7 3.1 8v.1h-6.8c0-1.9-.4-3.3-1.3-4.3-.8-1-2-1.5-3.6-1.5-1.3 0-2.4.4-3.1 1.3-.7.9-1.1 2-1.1 3.3 0 1.2.4 2.2 1.3 3 .8.8 2.3 1.7 4.4 2.6 3.5 1.2 6.2 2.6 8 4.4 1.8 1.8 2.7 4.2 2.7 7.2 0 3.1-1.1 5.5-3.2 7.3-2.1 1.8-4.9 2.7-8.4 2.7-3.4 0-6.4-1-8.8-2.9-2.4-1.9-3.6-4.8-3.5-8.8v-.1h6.8c0 2.3.5 3.9 1.4 4.9.9 1 2.3 1.5 4.1 1.5 1.5 0 2.6-.4 3.4-1.2.6-.6 1-1.7 1-3z" fill="#ffffff" data-color="3"></path>
        <path d="M366.7 363.2c-3.6 0-6.3-1.2-8.3-3.7-2-2.5-2.9-5.6-2.9-9.5v-1c0-4.1.9-7.4 2.8-9.9 1.9-2.6 4.5-3.8 8-3.8 3.2 0 5.6 1.1 7.3 3.3s2.5 5.1 2.5 8.9v3.8h-13.6c.1 2 .6 3.6 1.4 4.8.8 1.2 2 1.8 3.6 1.8 1.4 0 2.6-.2 3.5-.5.9-.3 1.9-.8 3-1.5l1.8 4.4c-1 .9-2.3 1.6-3.9 2.2-1.6.4-3.3.7-5.2.7zm-.4-22.5c-1.2 0-2.1.5-2.6 1.6-.6 1-.9 2.5-1.1 4.3h6.7v-.6c0-1.6-.2-2.9-.7-3.8-.5-1-1.3-1.5-2.3-1.5z" fill="#ffffff" data-color="3"></path>
        <path d="M378.8 349.3c0-4.2.8-7.6 2.4-10.2 1.6-2.6 3.8-3.9 6.7-3.9 1.2 0 2.3.3 3.3.9.9.6 1.8 1.5 2.5 2.7l.5-3.1h6.1v26.8c0 3.5-1 6.2-3.1 8.1-2 1.9-4.9 2.9-8.5 2.9-1.2 0-2.5-.2-3.8-.5-1.3-.4-2.6-.9-3.7-1.5l1.2-5.3c1 .5 2 .9 3 1.2 1 .3 2.1.4 3.3.4 1.6 0 2.7-.4 3.5-1.3s1.1-2.2 1.1-4v-2c-.7.9-1.5 1.5-2.3 2-.9.5-1.9.7-3 .7-2.9 0-5.1-1.2-6.6-3.6-1.6-2.4-2.4-5.7-2.4-9.7v-.6zm7 .6c0 2.5.3 4.4.9 5.8.6 1.4 1.6 2.1 3 2.1.8 0 1.5-.2 2.1-.5.6-.3 1-.8 1.4-1.4V343c-.4-.7-.9-1.3-1.4-1.7-.6-.4-1.2-.6-2-.6-1.4 0-2.3.8-3 2.4-.6 1.6-.9 3.6-.9 6.2v.6z" fill="#ffffff" data-color="3"></path>
        <path d="M418.8 358.8c-.7 1.4-1.6 2.5-2.7 3.2-1.1.8-2.3 1.1-3.7 1.1-2.4 0-4.3-1-5.7-2.9-1.4-1.9-2.1-4.9-2.1-9v-15.5h7v15.6c0 2.4.2 4.1.7 5 .5.9 1.2 1.4 2.2 1.4.8 0 1.5-.2 2.1-.5.6-.3 1.1-.8 1.6-1.4v-20.1h7v26.9h-5.8l-.6-3.8z" fill="#ffffff" data-color="3"></path>
        <path d="m442.5 341.8-2.4-.1c-.8 0-1.4.2-2 .6-.5.4-.9 1-1.2 1.7v18.6h-7v-26.9h6.5l.3 3.8c.5-1.4 1.2-2.4 2-3.2.8-.8 1.7-1.1 2.8-1.1.3 0 .6 0 .9.1.3.1.5.1.8.2l-.7 6.3z" fill="#ffffff" data-color="3"></path>
        <path d="M459.2 362.7c-.3-.6-.5-1.2-.7-1.9-.2-.7-.3-1.4-.4-2.1-.6 1.3-1.4 2.4-2.4 3.3s-2.2 1.3-3.6 1.3c-2.5 0-4.3-.7-5.7-2.2-1.3-1.4-2-3.4-2-5.9 0-2.6.9-4.7 2.6-6.1 1.7-1.5 4.3-2.2 7.8-2.2h3.1v-2.2c0-1.3-.2-2.4-.7-3.1s-1.2-1.1-2.2-1.1c-.9 0-1.5.3-2 .9-.4.6-.7 1.4-.7 2.5h-6.8v-.1c-.1-2.3.8-4.3 2.6-5.9 1.8-1.6 4.3-2.4 7.3-2.4 2.8 0 5.1.8 6.9 2.4 1.8 1.6 2.6 4 2.6 7V356c0 1.3.1 2.5.3 3.6.2 1.1.5 2.3.8 3.4h-6.8zm-5.1-4.7c.9 0 1.8-.3 2.5-.9.7-.6 1.2-1.3 1.5-2.1v-4.2H455c-1.2 0-2 .4-2.6 1.1-.5.8-.8 1.7-.8 2.9 0 .9.2 1.7.7 2.3s1 .9 1.8.9z" fill="#ffffff" data-color="3"></path>
        <path d="m476 335.7.3 3.8c.8-1.3 1.7-2.4 2.8-3.1 1.1-.7 2.3-1.1 3.7-1.1 2.3 0 4.1.9 5.4 2.7 1.3 1.8 2 4.6 2 8.4v16.4h-7v-16.4c0-2-.2-3.5-.7-4.3-.5-.8-1.2-1.3-2.2-1.3-.8 0-1.5.2-2.1.5-.6.4-1.1.9-1.6 1.5v19.8h-7v-26.9h6.4z" fill="#ffffff" data-color="3"></path>
        <path d="M504.6 357.7c1 0 1.8-.4 2.3-1.1.5-.7.8-1.8.8-3.2h6.3l.1.1c0 2.8-.8 5.1-2.6 6.9-1.8 1.8-4.1 2.7-6.8 2.7-3.5 0-6.2-1.3-8.1-3.8-1.9-2.5-2.8-5.8-2.8-9.8v-.7c0-4 .9-7.2 2.8-9.8 1.9-2.5 4.6-3.8 8.1-3.8 2.9 0 5.2.9 7 2.8 1.7 1.9 2.6 4.4 2.5 7.6v.1h-6.4c0-1.5-.3-2.7-.8-3.6-.5-.9-1.3-1.4-2.3-1.4-1.5 0-2.5.7-3 2.2-.6 1.5-.8 3.4-.8 5.9v.7c0 2.5.3 4.5.8 6 .4 1.5 1.4 2.2 2.9 2.2zm2.6 4.9-.2 1.4c.9.2 1.6.6 2.2 1.3s.9 1.7.9 3c0 1.8-.7 3.2-2 4.3-1.3 1.1-3.3 1.6-5.7 1.6l-.1-3.9c.6 0 1.1-.2 1.4-.5.3-.3.5-.9.5-1.6 0-.7-.2-1.2-.6-1.5-.4-.3-1.2-.5-2.2-.5l.7-3.5h5.1z" fill="#ffffff" data-color="3"></path>
        <path d="M531.1 362.7c-.3-.6-.5-1.2-.7-1.9-.2-.7-.3-1.4-.4-2.1-.6 1.3-1.4 2.4-2.4 3.3s-2.2 1.3-3.6 1.3c-2.5 0-4.3-.7-5.7-2.2-1.3-1.4-2-3.4-2-5.9 0-2.6.9-4.7 2.6-6.1 1.7-1.5 4.3-2.2 7.8-2.2h3.1v-2.2c0-1.3-.2-2.4-.7-3.1s-1.2-1.1-2.2-1.1c-.9 0-1.5.3-2 .9-.4.6-.7 1.4-.7 2.5h-6.8v-.1c-.1-2.3.8-4.3 2.6-5.9 1.8-1.6 4.3-2.4 7.3-2.4 2.8 0 5.1.8 6.9 2.4 1.8 1.6 2.6 4 2.6 7V356c0 1.3.1 2.5.3 3.6.2 1.1.5 2.3.8 3.4h-6.8zm-5.2-4.7c.9 0 1.8-.3 2.5-.9.7-.6 1.2-1.3 1.5-2.1v-4.2h-3.1c-1.2 0-2 .4-2.6 1.1-.5.8-.8 1.7-.8 2.9 0 .9.2 1.7.7 2.3s1.1.9 1.8.9z" fill="#ffffff" data-color="3"></path>
        <path d="M571.3 346.7h-11.1v10.5h13.3v5.5h-20.3v-36.3h20.2v5.5h-13.2v9.3h11.1v5.5z" fill="#ffffff" data-color="3"></path>
        <path d="M584.8 362.7h-7v-38.8h7v38.8z" fill="#ffffff" data-color="3"></path>
        <path d="M600.2 363.2c-3.6 0-6.3-1.2-8.3-3.7-2-2.5-2.9-5.6-2.9-9.5v-1c0-4.1.9-7.4 2.8-9.9 1.9-2.6 4.5-3.8 8-3.8 3.2 0 5.6 1.1 7.3 3.3 1.7 2.2 2.5 5.1 2.5 8.9v3.8H596c.1 2 .6 3.6 1.4 4.8.8 1.2 2 1.8 3.6 1.8 1.4 0 2.6-.2 3.5-.5.9-.3 1.9-.8 3-1.5l1.8 4.4c-1 .9-2.3 1.6-3.9 2.2s-3.4.7-5.2.7zm-.5-22.5c-1.2 0-2.1.5-2.6 1.6-.6 1-.9 2.5-1.1 4.3h6.7v-.6c0-1.6-.2-2.9-.7-3.8-.4-1-1.2-1.5-2.3-1.5z" fill="#ffffff" data-color="3"></path>
        <path d="M621.4 329v6.7h3.7v5h-3.7v13.7c0 1.1.2 2 .5 2.4.3.5.8.7 1.4.7.3 0 .6 0 .8-.1.2 0 .5-.1.8-.2l.5 5.2c-.7.2-1.3.4-1.9.5-.6.1-1.3.2-2.1.2-2.3 0-4-.7-5.3-2.1-1.2-1.4-1.8-3.6-1.8-6.6v-13.8H611v-5h3.3V329h7.1z" fill="#ffffff" data-color="3"></path>
        <path d="m641.5 341.8-2.4-.1c-.8 0-1.4.2-2 .6-.5.4-.9 1-1.2 1.7v18.6h-7v-26.9h6.5l.3 3.8c.5-1.4 1.2-2.4 2-3.2s1.7-1.1 2.8-1.1c.3 0 .6 0 .9.1.3.1.5.1.8.2l-.7 6.3z" fill="#ffffff" data-color="3"></path>
        <path d="M644 349c0-4 1-7.3 2.9-9.9 1.9-2.5 4.7-3.8 8.2-3.8 3.5 0 6.2 1.3 8.2 3.8 2 2.5 2.9 5.8 2.9 9.9v.6c0 4.1-1 7.3-2.9 9.9-2 2.5-4.7 3.8-8.1 3.8-3.5 0-6.2-1.3-8.2-3.8-1.9-2.5-2.9-5.8-2.9-9.9v-.6zm19.4-18.5v.5h-5.5l-2.9-3.4-2.9 3.4h-5.4v-.6l6.3-5.9h4l6.4 6zm-12.4 19c0 2.5.3 4.5.9 6 .6 1.5 1.7 2.2 3.2 2.2 1.4 0 2.5-.7 3.1-2.2.6-1.5.9-3.5.9-6v-.5c0-2.5-.3-4.5-.9-6-.6-1.5-1.7-2.3-3.1-2.3s-2.5.8-3.1 2.3c-.6 1.5-.9 3.5-.9 6v.5z" fill="#ffffff" data-color="3"></path>
        <path d="m676.4 335.7.3 3.8c.8-1.3 1.7-2.4 2.8-3.1 1.1-.7 2.3-1.1 3.7-1.1 2.3 0 4.1.9 5.4 2.7 1.3 1.8 2 4.6 2 8.4v16.4h-7v-16.4c0-2-.2-3.5-.7-4.3-.5-.8-1.2-1.3-2.2-1.3-.8 0-1.5.2-2.1.5-.6.4-1.1.9-1.6 1.5v19.8h-7v-26.9h6.4z" fill="#ffffff" data-color="3"></path>
        <path d="M702.4 329.2h-7v-5.4h7v5.4zm0 33.5h-7v-26.9h7v26.9z" fill="#ffffff" data-color="3"></path>
        <path d="M717.3 357.7c1 0 1.8-.4 2.3-1.1s.8-1.8.8-3.2h6.3l.1.1c0 2.8-.8 5.1-2.6 6.9-1.8 1.8-4.1 2.7-6.8 2.7-3.5 0-6.2-1.3-8.1-3.8s-2.8-5.8-2.8-9.8v-.7c0-4 .9-7.2 2.8-9.8 1.9-2.5 4.6-3.8 8.1-3.8 2.9 0 5.2.9 7 2.8 1.7 1.9 2.6 4.4 2.5 7.6v.1h-6.4c0-1.5-.3-2.7-.8-3.6-.5-.9-1.3-1.4-2.3-1.4-1.5 0-2.5.7-3 2.2-.6 1.5-.8 3.4-.8 5.9v.7c0 2.5.3 4.5.8 6 .4 1.5 1.5 2.2 2.9 2.2z" fill="#ffffff" data-color="3"></path>
        <path d="M743.8 362.7c-.3-.6-.5-1.2-.7-1.9-.2-.7-.3-1.4-.4-2.1-.6 1.3-1.4 2.4-2.4 3.3s-2.2 1.3-3.6 1.3c-2.5 0-4.3-.7-5.7-2.2-1.3-1.4-2-3.4-2-5.9 0-2.6.9-4.7 2.6-6.1 1.7-1.5 4.3-2.2 7.8-2.2h3.1v-2.2c0-1.3-.2-2.4-.7-3.1s-1.2-1.1-2.2-1.1c-.9 0-1.5.3-2 .9s-.7 1.4-.7 2.5h-6.8v-.1c-.1-2.3.8-4.3 2.6-5.9 1.8-1.6 4.3-2.4 7.3-2.4 2.8 0 5.1.8 6.9 2.4 1.8 1.6 2.6 4 2.6 7V356c0 1.3.1 2.5.3 3.6.2 1.1.5 2.3.8 3.4h-6.8zm-5.2-4.7c.9 0 1.8-.3 2.5-.9.7-.6 1.2-1.3 1.5-2.1v-4.2h-3.1c-1.2 0-2 .4-2.6 1.1-.5.8-.8 1.7-.8 2.9 0 .9.2 1.7.7 2.3s1.1.9 1.8.9z" fill="#ffffff" data-color="3"></path>
        <path d="M403.7 414.5h.1l6.8-26.9h9.2v36.3h-7V401h-.1l-6.5 22.9h-4.7l-6.5-22.7h-.1v22.7h-7v-36.3h9.1l6.7 26.9z" fill="#ffffff" data-color="3"></path>
        <path d="M424 410.1c0-4 1-7.3 2.9-9.9 1.9-2.5 4.7-3.8 8.2-3.8 3.5 0 6.2 1.3 8.2 3.8 2 2.5 2.9 5.8 2.9 9.9v.6c0 4.1-1 7.3-2.9 9.9-2 2.5-4.7 3.8-8.1 3.8-3.5 0-6.2-1.3-8.2-3.8-1.9-2.5-2.9-5.8-2.9-9.9v-.6zm7 .6c0 2.5.3 4.5.9 6s1.7 2.2 3.2 2.2c1.4 0 2.5-.7 3.1-2.2s.9-3.5.9-6v-.6c0-2.5-.3-4.5-.9-6s-1.7-2.3-3.1-2.3c-1.5 0-2.5.8-3.1 2.3-.6 1.5-.9 3.5-.9 6v.6z" fill="#ffffff" data-color="3"></path>
        <path d="m456.4 396.9.3 3.8c.8-1.3 1.7-2.4 2.8-3.1 1.1-.7 2.3-1.1 3.7-1.1 2.3 0 4.1.9 5.4 2.7 1.3 1.8 2 4.6 2 8.4V424h-7v-16.4c0-2-.2-3.5-.7-4.3-.5-.8-1.2-1.3-2.2-1.3-.8 0-1.5.2-2.1.5-.6.4-1.1.9-1.6 1.5v19.8h-7v-26.9h6.4z" fill="#ffffff" data-color="3"></path>
        <path d="M482.4 390.4h-7V385h7v5.4zm0 33.5h-7V397h7v26.9z" fill="#ffffff" data-color="3"></path>
        <path d="M495.6 390.2v6.7h3.7v5h-3.7v13.7c0 1.1.2 2 .5 2.4.3.5.8.7 1.4.7.3 0 .6 0 .8-.1.2 0 .5-.1.8-.2l.5 5.2c-.7.2-1.3.4-1.9.5-.6.1-1.3.2-2.1.2-2.3 0-4-.7-5.3-2.1-1.2-1.4-1.8-3.6-1.8-6.6v-13.8h-3.3v-5h3.3v-6.7h7.1z" fill="#ffffff" data-color="3"></path>
        <path d="M502.4 410.1c0-4 1-7.3 2.9-9.9 1.9-2.5 4.7-3.8 8.2-3.8 3.5 0 6.2 1.3 8.2 3.8 2 2.5 2.9 5.8 2.9 9.9v.6c0 4.1-1 7.3-2.9 9.9-2 2.5-4.7 3.8-8.1 3.8-3.5 0-6.2-1.3-8.2-3.8-1.9-2.5-2.9-5.8-2.9-9.9v-.6zm7 .6c0 2.5.3 4.5.9 6s1.7 2.2 3.2 2.2c1.4 0 2.5-.7 3.1-2.2s.9-3.5.9-6v-.6c0-2.5-.3-4.5-.9-6s-1.7-2.3-3.1-2.3c-1.5 0-2.5.8-3.1 2.3-.6 1.5-.9 3.5-.9 6v.6z" fill="#ffffff" data-color="3"></path>
        <path d="m540.9 403-2.4-.1c-.8 0-1.4.2-2 .6-.5.4-.9 1-1.2 1.7v18.6h-7v-26.9h6.5l.3 3.8c.5-1.4 1.2-2.4 2-3.2.8-.8 1.7-1.1 2.8-1.1.3 0 .6 0 .9.1.3.1.5.1.8.2l-.7 6.3z" fill="#ffffff" data-color="3"></path>
        <path d="M557.6 423.9c-.3-.6-.5-1.2-.7-1.9-.2-.7-.3-1.4-.4-2.1-.6 1.3-1.4 2.4-2.4 3.3s-2.2 1.3-3.6 1.3c-2.5 0-4.3-.7-5.7-2.2-1.3-1.4-2-3.4-2-5.9 0-2.6.9-4.7 2.6-6.1 1.7-1.5 4.3-2.2 7.8-2.2h3.1v-2.2c0-1.3-.2-2.4-.7-3.1s-1.2-1.1-2.2-1.1c-.9 0-1.5.3-2 .9s-.7 1.4-.7 2.5h-6.8v-.1c-.1-2.3.8-4.3 2.6-5.9 1.8-1.6 4.3-2.4 7.3-2.4 2.8 0 5.1.8 6.9 2.4 1.8 1.6 2.6 4 2.6 7v11.1c0 1.3.1 2.5.3 3.6.2 1.1.5 2.3.8 3.4h-6.8zm-5.1-4.7c.9 0 1.8-.3 2.5-.9.7-.6 1.2-1.3 1.5-2.1V412h-3.1c-1.2 0-2 .4-2.6 1.1-.5.8-.8 1.7-.8 2.9 0 .9.2 1.7.7 2.3s1 .9 1.8.9z" fill="#ffffff" data-color="3"></path>
        <path d="m574.6 396.9.3 3.5c.7-1.3 1.6-2.2 2.8-2.9 1.1-.7 2.4-1 3.8-1s2.6.4 3.7 1.1c1 .7 1.8 1.9 2.4 3.4.7-1.4 1.6-2.5 2.8-3.3 1.1-.8 2.4-1.2 3.9-1.2 2.3 0 4 .9 5.4 2.8 1.3 1.9 2 4.8 2 8.7v15.9h-7V408c0-2.3-.2-3.8-.7-4.7-.5-.9-1.2-1.3-2.2-1.3-.7 0-1.4.2-1.9.6s-1 1-1.4 1.8c0 .4 0 .8.1 1.1V424h-7v-15.9c0-2.2-.2-3.8-.7-4.7-.5-.9-1.2-1.3-2.2-1.3-.7 0-1.3.2-1.8.5s-1 .8-1.4 1.4v20h-7v-26.9h6.1z" fill="#ffffff" data-color="3"></path>
        <path d="M616.4 424.4c-3.6 0-6.3-1.2-8.3-3.7-2-2.5-2.9-5.6-2.9-9.5v-1c0-4.1.9-7.4 2.8-9.9 1.9-2.6 4.5-3.8 8-3.8 3.2 0 5.6 1.1 7.3 3.3 1.7 2.2 2.5 5.1 2.5 8.9v3.8h-13.6c.1 2 .6 3.6 1.4 4.8.8 1.2 2 1.8 3.6 1.8 1.4 0 2.6-.2 3.5-.5.9-.3 1.9-.8 3-1.5l1.8 4.4c-1 .9-2.3 1.6-3.9 2.2s-3.3.7-5.2.7zm-.4-22.5c-1.2 0-2.1.5-2.6 1.6-.6 1-.9 2.5-1.1 4.3h6.7v-.6c0-1.6-.2-2.9-.7-3.8-.5-1-1.2-1.5-2.3-1.5z" fill="#ffffff" data-color="3"></path>
        <path d="m635.9 396.9.3 3.8c.8-1.3 1.7-2.4 2.8-3.1 1.1-.7 2.3-1.1 3.7-1.1 2.3 0 4.1.9 5.4 2.7 1.3 1.8 2 4.6 2 8.4V424h-7v-16.4c0-2-.2-3.5-.7-4.3-.5-.8-1.2-1.3-2.2-1.3-.8 0-1.5.2-2.1.5-.6.4-1.1.9-1.6 1.5v19.8h-7v-26.9h6.4z" fill="#ffffff" data-color="3"></path>
        <path d="M662.8 390.2v6.7h3.7v5h-3.7v13.7c0 1.1.2 2 .5 2.4.3.5.8.7 1.4.7.3 0 .6 0 .8-.1.2 0 .5-.1.8-.2l.5 5.2c-.7.2-1.3.4-1.9.5-.6.1-1.3.2-2.1.2-2.3 0-4-.7-5.3-2.1-1.2-1.4-1.8-3.6-1.8-6.6v-13.8h-3.3v-5h3.3v-6.7h7.1z" fill="#ffffff" data-color="3"></path>
        <path d="M669.5 410.1c0-4 1-7.3 2.9-9.9 1.9-2.5 4.7-3.8 8.2-3.8 3.5 0 6.2 1.3 8.2 3.8 2 2.5 2.9 5.8 2.9 9.9v.6c0 4.1-1 7.3-2.9 9.9-2 2.5-4.7 3.8-8.1 3.8-3.5 0-6.2-1.3-8.2-3.8-1.9-2.5-2.9-5.8-2.9-9.9v-.6zm7 .6c0 2.5.3 4.5.9 6 .6 1.5 1.7 2.2 3.2 2.2 1.4 0 2.5-.7 3.1-2.2.6-1.5.9-3.5.9-6v-.6c0-2.5-.3-4.5-.9-6-.6-1.5-1.7-2.3-3.1-2.3s-2.5.8-3.1 2.3c-.6 1.5-.9 3.5-.9 6v.6z" fill="#ffffff" data-color="3"></path>
        <path d="M471.7 475.6c0-1.4-.4-2.6-1.1-3.4-.7-.8-2.1-1.7-4-2.5-3.7-1.3-6.5-2.8-8.4-4.5-1.9-1.7-2.8-4-2.8-7s1.1-5.4 3.2-7.3c2.1-1.9 4.9-2.8 8.2-2.8 3.5 0 6.3 1 8.5 3s3.2 4.7 3.1 8v.1h-6.8c0-1.9-.4-3.3-1.3-4.3-.8-1-2-1.5-3.6-1.5-1.3 0-2.4.4-3.1 1.3-.7.9-1.1 2-1.1 3.3 0 1.2.4 2.2 1.3 3 .8.8 2.3 1.7 4.4 2.6 3.5 1.2 6.2 2.6 8 4.4 1.8 1.8 2.7 4.2 2.7 7.2 0 3.1-1.1 5.5-3.2 7.3-2.1 1.8-4.9 2.7-8.4 2.7-3.4 0-6.4-1-8.8-2.9-2.4-1.9-3.6-4.8-3.5-8.8v-.1h6.8c0 2.3.5 3.9 1.4 4.9.9 1 2.3 1.5 4.1 1.5 1.5 0 2.6-.4 3.4-1.2.6-.5 1-1.6 1-3z" fill="#ffffff" data-color="3"></path>
        <path d="M493.1 485.6c-3.6 0-6.3-1.2-8.3-3.7-2-2.5-2.9-5.6-2.9-9.5v-1c0-4.1.9-7.4 2.8-9.9 1.9-2.6 4.5-3.8 8-3.8 3.2 0 5.6 1.1 7.3 3.3s2.5 5.1 2.5 8.9v3.8H489c.1 2 .6 3.6 1.4 4.8.8 1.2 2 1.8 3.6 1.8 1.4 0 2.6-.2 3.5-.5.9-.3 1.9-.8 3-1.5l1.8 4.4c-1 .9-2.3 1.6-3.9 2.2-1.6.4-3.4.7-5.3.7zm-.4-22.5c-1.2 0-2.1.5-2.6 1.6-.6 1-.9 2.5-1.1 4.3h6.7v-.6c0-1.6-.2-2.9-.7-3.8-.5-1-1.2-1.5-2.3-1.5z" fill="#ffffff" data-color="3"></path>
        <path d="m518.7 464.2-2.4-.1c-.8 0-1.4.2-2 .6-.5.4-.9 1-1.2 1.7V485h-7v-26.9h6.5l.3 3.8c.5-1.4 1.2-2.4 2-3.2.8-.8 1.7-1.1 2.8-1.1.3 0 .6 0 .9.1.3.1.5.1.8.2l-.7 6.3z" fill="#ffffff" data-color="3"></path>
        <path d="m530.7 475.1.3 2h.1l.4-2 3.3-17h7.3l-7.7 26.9h-6.8l-7.7-26.9h7.4l3.4 17z" fill="#ffffff" data-color="3"></path>
        <path d="M552.3 451.6h-7v-5.4h7v5.4zm0 33.4h-7v-26.9h7V485z" fill="#ffffff" data-color="3"></path>
        <path d="M567.2 480.1c1 0 1.8-.4 2.3-1.1s.8-1.8.8-3.2h6.3l.1.1c0 2.8-.8 5.1-2.6 6.9-1.8 1.8-4.1 2.7-6.8 2.7-3.5 0-6.2-1.3-8.1-3.8s-2.8-5.8-2.8-9.8v-.7c0-4 .9-7.2 2.8-9.8 1.9-2.5 4.6-3.8 8.1-3.8 2.9 0 5.2.9 7 2.8 1.7 1.9 2.6 4.4 2.5 7.6v.1h-6.4c0-1.5-.3-2.7-.8-3.6-.5-.9-1.3-1.4-2.3-1.4-1.5 0-2.5.7-3 2.2-.6 1.5-.8 3.4-.8 5.9v.7c0 2.5.3 4.5.8 6 .4 1.5 1.4 2.2 2.9 2.2zm2.6 4.8-.2 1.5c.9.2 1.6.6 2.2 1.3s.9 1.7.9 3c0 1.8-.7 3.2-2 4.3-1.3 1.1-3.3 1.6-5.7 1.6l-.1-3.9c.6 0 1.1-.2 1.4-.5.3-.3.5-.9.5-1.6 0-.7-.2-1.2-.6-1.5-.4-.3-1.2-.5-2.2-.5l.7-3.5h5.1z" fill="#ffffff" data-color="3"></path>
        <path d="M579.4 471.3c0-4 1-7.3 2.9-9.9 1.9-2.5 4.7-3.8 8.2-3.8 3.5 0 6.2 1.3 8.2 3.8 2 2.5 2.9 5.8 2.9 9.9v.6c0 4.1-1 7.3-2.9 9.9-2 2.5-4.7 3.8-8.1 3.8-3.5 0-6.2-1.3-8.2-3.8-1.9-2.5-2.9-5.8-2.9-9.9v-.6zm7 .6c0 2.5.3 4.5.9 6 .6 1.5 1.7 2.2 3.2 2.2 1.4 0 2.5-.7 3.1-2.2.6-1.5.9-3.5.9-6v-.6c0-2.5-.3-4.5-.9-6-.6-1.5-1.7-2.3-3.1-2.3s-2.5.8-3.1 2.3c-.6 1.5-.9 3.5-.9 6v.6z" fill="#ffffff" data-color="3"></path>
        <path d="M617.3 478c0-.8-.3-1.5-.9-2-.6-.6-1.8-1.3-3.6-2.1-2.7-1-4.8-2.2-6.2-3.5-1.4-1.3-2.1-2.9-2.1-4.9 0-2.2.9-4.1 2.6-5.6 1.8-1.5 4.1-2.3 7-2.3 3 0 5.4.8 7.2 2.4 1.8 1.6 2.7 3.6 2.6 6.1v.1h-6.8c0-1.1-.2-2-.7-2.7-.5-.7-1.3-1-2.3-1-.8 0-1.5.3-2.1.8-.6.5-.8 1.2-.8 1.9 0 .8.3 1.4.8 1.9s1.7 1.2 3.6 2c2.8 1 5 2.1 6.3 3.4 1.4 1.3 2.1 3 2.1 5.1 0 2.3-.9 4.2-2.8 5.6s-4.3 2.2-7.3 2.2c-3.1 0-5.6-.9-7.4-2.7-1.8-1.8-2.7-3.8-2.6-6.1l.1-.1h6.4c0 1.5.4 2.5 1 3.1.7.6 1.6 1 2.7 1 1 0 1.8-.2 2.3-.7.7-.4.9-1 .9-1.9z" fill="#ffffff" data-color="3"></path>
        <path d="M411.2 733v.1c.1 3.1-.7 5.4-2.4 6.9-1.6 1.5-4 2.3-7 2.3-3.1 0-5.6-.9-7.4-2.7-1.8-1.8-2.7-4.4-2.7-7.8v-8.6c0-3.4.9-6 2.6-7.8 1.8-1.8 4.1-2.8 7.1-2.8 3.2 0 5.6.8 7.3 2.3 1.7 1.5 2.5 3.9 2.5 7v.1h-5.4c0-1.8-.3-3.1-1-3.9-.7-.7-1.7-1.1-3.3-1.1-1.4 0-2.5.5-3.2 1.5-.7 1-1.1 2.6-1.1 4.6v8.6c0 2.1.4 3.7 1.1 4.7s1.9 1.5 3.4 1.5c1.4 0 2.4-.4 3-1.1.6-.7.9-2 .9-3.9h5.6z" fill="#ffffff" data-color="3"></path>
        <path d="M413.7 731.1c0-3.2.8-5.8 2.3-7.9 1.5-2 3.7-3 6.5-3s4.9 1 6.5 3c1.6 2 2.3 4.7 2.3 7.9v.5c0 3.2-.8 5.8-2.3 7.9-1.6 2-3.7 3-6.5 3s-5-1-6.5-3-2.3-4.6-2.3-7.9v-.5zm5.6.4c0 2 .2 3.6.7 4.8.5 1.2 1.3 1.8 2.5 1.8 1.1 0 2-.6 2.5-1.8.5-1.2.8-2.8.8-4.8v-.5c0-2-.3-3.5-.8-4.7-.5-1.2-1.3-1.8-2.5-1.8s-2 .6-2.5 1.8c-.5 1.2-.7 2.8-.7 4.7v.5z" fill="#ffffff" data-color="3"></path>
        <path d="m439.6 720.6.2 2.8c.6-1 1.3-1.8 2.2-2.3.9-.5 1.9-.8 3-.8s2.1.3 2.9.9c.8.6 1.4 1.5 1.9 2.7.6-1.1 1.3-2 2.2-2.6.9-.6 1.9-.9 3.1-.9 1.8 0 3.2.8 4.3 2.3 1 1.5 1.6 3.8 1.6 6.9V742h-5.6v-12.7c0-1.8-.2-3.1-.6-3.7-.4-.7-1-1-1.8-1-.6 0-1.1.2-1.5.5-.4.3-.8.8-1.1 1.4v15.6h-5.6v-12.7c0-1.8-.2-3-.6-3.7s-1-1-1.8-1c-.5 0-1 .1-1.5.4s-.8.7-1.1 1.1V742h-5.6v-21.4h5.4z" fill="#ffffff" data-color="3"></path>
        <path d="M481.7 731.8c0 3.2-.6 5.8-1.9 7.7s-3 2.9-5.3 2.9c-.9 0-1.7-.2-2.4-.5s-1.3-.9-1.8-1.6v10h-5.6v-29.7h5.1l.2 2.2c.5-.8 1.2-1.5 1.9-1.9.7-.4 1.6-.7 2.5-.7 2.3 0 4.1 1 5.3 3.1 1.3 2.1 1.9 4.8 1.9 8.1v.4zm-5.6-.4c0-2-.3-3.7-.8-5-.5-1.3-1.3-1.9-2.3-1.9-.6 0-1.2.2-1.6.5s-.8.8-1.1 1.4v10.1c.3.5.6.9 1.1 1.1.5.3 1 .4 1.7.4 1.1 0 1.9-.6 2.3-1.7.5-1.1.7-2.6.7-4.6v-.3z" fill="#ffffff" data-color="3"></path>
        <path d="m494.7 725.4-1.9-.1c-.6 0-1.1.2-1.6.5-.4.3-.7.8-1 1.4V742h-5.6v-21.4h5.2l.2 3c.4-1.1.9-1.9 1.6-2.5.6-.6 1.4-.9 2.2-.9.3 0 .5 0 .7.1.2 0 .4.1.7.2l-.5 4.9z" fill="#ffffff" data-color="3"></path>
        <path d="M496.6 731.1c0-3.2.8-5.8 2.3-7.9 1.5-2 3.7-3 6.5-3s4.9 1 6.5 3c1.6 2 2.3 4.7 2.3 7.9v.5c0 3.2-.8 5.8-2.3 7.9-1.6 2-3.7 3-6.5 3s-5-1-6.5-3-2.3-4.6-2.3-7.9v-.5zm5.6.4c0 2 .2 3.6.7 4.8.5 1.2 1.3 1.8 2.5 1.8 1.1 0 2-.6 2.5-1.8.5-1.2.8-2.8.8-4.8v-.5c0-2-.3-3.5-.8-4.7-.5-1.2-1.3-1.8-2.5-1.8s-2 .6-2.5 1.8c-.5 1.2-.7 2.8-.7 4.7v.5z" fill="#ffffff" data-color="3"></path>
        <path d="m522.5 720.6.2 2.8c.6-1 1.3-1.8 2.2-2.3.9-.5 1.9-.8 3-.8s2.1.3 2.9.9c.8.6 1.4 1.5 1.9 2.7.6-1.1 1.3-2 2.2-2.6.9-.6 1.9-.9 3.1-.9 1.8 0 3.2.8 4.3 2.3 1 1.5 1.6 3.8 1.6 6.9V742h-5.6v-12.7c0-1.8-.2-3.1-.6-3.7-.4-.7-1-1-1.8-1-.6 0-1.1.2-1.5.5-.4.3-.8.8-1.1 1.4v15.6h-5.6v-12.7c0-1.8-.2-3-.6-3.7s-1-1-1.8-1c-.5 0-1 .1-1.5.4s-.8.7-1.1 1.1V742h-5.6v-21.4h5.4z" fill="#ffffff" data-color="3"></path>
        <path d="M555.8 742.4c-2.8 0-5-1-6.6-2.9-1.6-2-2.3-4.5-2.3-7.6v-.8c0-3.2.8-5.9 2.2-7.9 1.5-2 3.6-3.1 6.3-3.1 2.5 0 4.5.9 5.8 2.6s2 4.1 2 7.1v3.1h-10.8c.1 1.6.5 2.8 1.1 3.8.6.9 1.6 1.4 2.9 1.4 1.1 0 2-.1 2.8-.4s1.5-.7 2.4-1.2l1.4 3.5c-.8.7-1.8 1.3-3.1 1.8-1.2.4-2.6.6-4.1.6zm-.3-17.9c-.9 0-1.6.4-2.1 1.2-.5.8-.7 2-.9 3.4h5.3v-.5c0-1.3-.2-2.3-.5-3.1-.4-.6-1-1-1.8-1z" fill="#ffffff" data-color="3"></path>
        <path d="M572.7 715.2v5.3h2.9v4h-2.9v10.9c0 .9.1 1.6.4 1.9.3.4.6.6 1.1.6h.7c.2 0 .4-.1.6-.2l.4 4.1c-.5.2-1 .3-1.5.4-.5.1-1 .1-1.6.1-1.8 0-3.2-.6-4.2-1.7s-1.5-2.9-1.5-5.3v-11h-2.6v-4h2.6V715h5.6z" fill="#ffffff" data-color="3"></path>
        <path d="M584.6 715.3H579V711h5.6v4.3zm0 26.7H579v-21.4h5.6V742z" fill="#ffffff" data-color="3"></path>
        <path d="m593.8 720.6.2 2.8c.6-1 1.3-1.8 2.2-2.3.9-.5 1.9-.8 3-.8s2.1.3 2.9.9 1.4 1.5 1.9 2.7c.6-1.1 1.3-2 2.2-2.6.9-.6 1.9-.9 3.1-.9 1.8 0 3.2.8 4.3 2.3s1.6 3.8 1.6 6.9V742h-5.6v-12.7c0-1.8-.2-3.1-.6-3.7-.4-.7-1-1-1.8-1-.6 0-1.1.2-1.5.5s-.8.8-1.1 1.4v15.6H599v-12.7c0-1.8-.2-3-.6-3.7-.4-.7-1-1-1.8-1-.5 0-1 .1-1.5.4-.4.3-.8.7-1.1 1.1V742h-5.6v-21.4h5.4z" fill="#ffffff" data-color="3"></path>
        <path d="M627.2 742.4c-2.8 0-5-1-6.6-2.9-1.6-2-2.3-4.5-2.3-7.6v-.8c0-3.2.8-5.9 2.2-7.9 1.5-2 3.6-3.1 6.3-3.1 2.5 0 4.5.9 5.8 2.6s2 4.1 2 7.1v3.1h-10.8c.1 1.6.5 2.8 1.1 3.8.6.9 1.6 1.4 2.9 1.4 1.1 0 2-.1 2.8-.4s1.5-.7 2.4-1.2l1.4 3.5c-.8.7-1.8 1.3-3.1 1.8-1.3.4-2.7.6-4.1.6zm-.4-17.9c-.9 0-1.6.4-2.1 1.2-.5.8-.7 2-.9 3.4h5.3v-.5c0-1.3-.2-2.3-.5-3.1-.3-.6-.9-1-1.8-1z" fill="#ffffff" data-color="3"></path>
        <path d="m642.6 720.6.2 3c.6-1.1 1.4-1.9 2.2-2.5.9-.6 1.9-.9 2.9-.9 1.8 0 3.3.7 4.3 2.1 1 1.4 1.6 3.7 1.6 6.7v13h-5.6v-13c0-1.6-.2-2.8-.6-3.4-.4-.7-1-1-1.8-1-.6 0-1.2.1-1.7.4-.5.3-.9.7-1.3 1.2V742h-5.6v-21.4h5.4z" fill="#ffffff" data-color="3"></path>
        <path d="M664 715.2v5.3h2.9v4H664v10.9c0 .9.1 1.6.4 1.9.3.4.6.6 1.1.6h.7c.2 0 .4-.1.6-.2l.4 4.1c-.5.2-1 .3-1.5.4-.5.1-1 .1-1.6.1-1.8 0-3.2-.6-4.2-1.7s-1.5-2.9-1.5-5.3v-11h-2.6v-4h2.6V715h5.6z" fill="#ffffff" data-color="3"></path>
        <path d="M669.4 731.1c0-3.2.8-5.8 2.3-7.9 1.5-2 3.7-3 6.5-3s4.9 1 6.5 3c1.6 2 2.3 4.7 2.3 7.9v.5c0 3.2-.8 5.8-2.3 7.9-1.6 2-3.7 3-6.5 3s-5-1-6.5-3-2.3-4.6-2.3-7.9v-.5zm5.6.4c0 2 .2 3.6.7 4.8.5 1.2 1.3 1.8 2.5 1.8 1.1 0 2-.6 2.5-1.8.5-1.2.8-2.8.8-4.8v-.5c0-2-.3-3.5-.8-4.7-.5-1.2-1.3-1.8-2.5-1.8s-2 .6-2.5 1.8c-.5 1.2-.7 2.8-.7 4.7v.5z" fill="#ffffff" data-color="3"></path>
        <path d="M481.3 780.3c0 1.3-.2 2.5-.5 3.6s-.7 2.1-1.3 2.9l3.5 4-3.6 2.9-3.4-3.7c-.8.4-1.6.7-2.5.9-.9.2-1.8.3-2.8.3-3.2 0-5.7-1-7.6-2.9-1.9-1.9-2.9-4.6-2.9-7.9v-8c0-3.4.9-6 2.8-8 1.9-1.9 4.4-2.9 7.6-2.9s5.7 1 7.7 2.9c1.9 1.9 2.9 4.6 2.9 8v7.9zm-5.6-8.1c0-2.1-.4-3.7-1.3-4.8-.9-1.1-2.1-1.6-3.7-1.6s-2.8.5-3.7 1.6c-.8 1.1-1.2 2.7-1.2 4.8v8.1c0 2.1.4 3.7 1.2 4.8.8 1.1 2.1 1.6 3.7 1.6s2.9-.5 3.7-1.6c.8-1.1 1.3-2.7 1.3-4.8v-8.1z" fill="#ffffff" data-color="3"></path>
        <path d="M496.6 787.6c-.6 1.1-1.3 2-2.1 2.6-.9.6-1.8.9-3 .9-1.9 0-3.4-.8-4.5-2.3s-1.7-3.9-1.7-7.2v-12.4h5.6v12.4c0 1.9.2 3.2.6 4 .4.7 1 1.1 1.8 1.1.6 0 1.2-.1 1.7-.4s.9-.6 1.2-1.1v-16h5.6v21.4h-4.6l-.6-3z" fill="#ffffff" data-color="3"></path>
        <path d="M516.1 790.7c-.2-.5-.4-1-.5-1.5s-.2-1.1-.3-1.7c-.5 1.1-1.1 1.9-1.9 2.6s-1.7 1-2.8 1c-2 0-3.5-.6-4.5-1.7s-1.6-2.7-1.6-4.7c0-2.1.7-3.7 2.1-4.9 1.4-1.2 3.4-1.7 6.2-1.7h2.4v-1.8c0-1.1-.2-1.9-.6-2.5-.4-.6-1-.9-1.8-.9-.7 0-1.2.2-1.6.7-.4.5-.5 1.1-.5 2h-5.4v-.1c-.1-1.8.6-3.4 2.1-4.7 1.5-1.3 3.4-1.9 5.8-1.9 2.3 0 4.1.6 5.5 1.9s2.1 3.1 2.1 5.5v8.8c0 1 .1 2 .2 2.9.1.9.4 1.8.7 2.7h-5.6zM512 787c.7 0 1.4-.2 2-.7.6-.5 1-1 1.2-1.7v-3.4h-2.4c-.9 0-1.6.3-2.1.9-.4.6-.6 1.4-.6 2.3 0 .7.2 1.3.5 1.8.4.5.8.8 1.4.8z" fill="#ffffff" data-color="3"></path>
        <path d="M530.2 790.7h-5.6v-30.9h5.6v30.9z" fill="#ffffff" data-color="3"></path>
        <path d="M540.1 764h-5.6v-4.3h5.6v4.3zm0 26.7h-5.6v-21.4h5.6v21.4z" fill="#ffffff" data-color="3"></path>
        <path d="M543.3 780.1c0-3.4.6-6.1 1.9-8.1 1.3-2.1 3-3.1 5.3-3.1.9 0 1.6.2 2.3.6.7.4 1.3 1 1.9 1.7v-11.4h5.6v30.9h-4.8l-.4-2.4c-.6.9-1.2 1.6-2 2.1s-1.6.7-2.6.7c-2.3 0-4-1-5.3-2.9s-1.9-4.5-1.9-7.7v-.4zm5.6.4c0 1.9.2 3.5.7 4.6s1.3 1.7 2.4 1.7c.6 0 1.1-.1 1.6-.4s.9-.7 1.2-1.3v-9.8c-.3-.6-.7-1.1-1.2-1.4-.5-.3-1-.5-1.6-.5-1.1 0-1.9.6-2.4 1.9-.5 1.3-.7 2.9-.7 5v.2z" fill="#ffffff" data-color="3"></path>
        <path d="M574.8 790.7c-.2-.5-.4-1-.5-1.5s-.2-1.1-.3-1.7c-.5 1.1-1.1 1.9-1.9 2.6-.8.7-1.7 1-2.8 1-2 0-3.5-.6-4.5-1.7s-1.6-2.7-1.6-4.7c0-2.1.7-3.7 2.1-4.9 1.4-1.2 3.4-1.7 6.2-1.7h2.4v-1.8c0-1.1-.2-1.9-.6-2.5-.4-.6-1-.9-1.8-.9-.7 0-1.2.2-1.6.7s-.5 1.1-.5 2H564v-.1c-.1-1.8.6-3.4 2.1-4.7 1.5-1.3 3.4-1.9 5.8-1.9 2.3 0 4.1.6 5.5 1.9s2.1 3.1 2.1 5.5v8.8c0 1 .1 2 .2 2.9s.4 1.8.7 2.7h-5.6zm-4.1-3.7c.7 0 1.4-.2 2-.7.6-.5 1-1 1.2-1.7v-3.4h-2.4c-.9 0-1.6.3-2.1.9-.4.6-.6 1.4-.6 2.3 0 .7.2 1.3.5 1.8s.8.8 1.4.8z" fill="#ffffff" data-color="3"></path>
        <path d="M582.3 780.1c0-3.4.6-6.1 1.9-8.1 1.3-2.1 3-3.1 5.3-3.1.9 0 1.6.2 2.3.6.7.4 1.3 1 1.9 1.7v-11.4h5.6v30.9h-4.8l-.4-2.4c-.6.9-1.2 1.6-2 2.1s-1.6.7-2.6.7c-2.3 0-4-1-5.3-2.9s-1.9-4.5-1.9-7.7v-.4zm5.5.4c0 1.9.2 3.5.7 4.6s1.3 1.7 2.4 1.7c.6 0 1.1-.1 1.6-.4s.9-.7 1.2-1.3v-9.8c-.3-.6-.7-1.1-1.2-1.4-.5-.3-1-.5-1.6-.5-1.1 0-1.9.6-2.4 1.9-.5 1.3-.7 2.9-.7 5v.2z" fill="#ffffff" data-color="3"></path>
        <path d="M611.2 791.1c-2.8 0-5-1-6.6-2.9-1.6-2-2.3-4.5-2.3-7.6v-.8c0-3.2.8-5.9 2.2-7.9 1.5-2 3.6-3.1 6.3-3.1 2.5 0 4.5.9 5.8 2.6s2 4.1 2 7.1v3.1h-10.8c.1 1.6.5 2.8 1.1 3.8.6.9 1.6 1.4 2.9 1.4 1.1 0 2-.1 2.8-.4s1.5-.7 2.4-1.2l1.4 3.5c-.8.7-1.8 1.3-3.1 1.8-1.2.4-2.6.6-4.1.6zm-.3-17.9c-.9 0-1.6.4-2.1 1.2-.5.8-.7 2-.9 3.4h5.3v-.5c0-1.3-.2-2.3-.5-3.1-.4-.6-1-1-1.8-1z" fill="#ffffff" data-color="3"></path>
        <path d="M469.5 831.9c0-1.1-.3-2.1-.9-2.7-.6-.7-1.6-1.3-3.2-2-3-1-5.2-2.2-6.7-3.5-1.5-1.3-2.2-3.2-2.2-5.5 0-2.4.9-4.3 2.6-5.8 1.7-1.5 3.9-2.2 6.5-2.2 2.8 0 5.1.8 6.8 2.4 1.7 1.6 2.5 3.7 2.5 6.4v.1h-5.4c0-1.5-.3-2.6-1-3.4-.7-.8-1.6-1.2-2.9-1.2-1.1 0-1.9.4-2.5 1.1-.6.7-.9 1.6-.9 2.6s.3 1.8 1 2.4 1.8 1.3 3.5 2.1c2.8.9 4.9 2.1 6.3 3.5 1.4 1.4 2.1 3.3 2.1 5.7 0 2.5-.8 4.4-2.5 5.8-1.7 1.4-3.9 2.1-6.7 2.1-2.7 0-5.1-.8-7-2.3-1.9-1.5-2.9-3.8-2.8-7v-.1h5.4c0 1.8.4 3.1 1.1 3.9s1.8 1.2 3.2 1.2c1.2 0 2.1-.3 2.7-1 .7-.6 1-1.5 1-2.6z" fill="#ffffff" data-color="3"></path>
        <path d="M486.5 839.8c-2.8 0-5-1-6.6-2.9s-2.3-4.5-2.3-7.6v-.8c0-3.2.7-5.9 2.2-7.9 1.5-2 3.6-3.1 6.3-3.1 2.5 0 4.5.9 5.8 2.6s2 4.1 2 7.1v3.1h-10.8c.1 1.6.5 2.8 1.1 3.8.6.9 1.6 1.4 2.9 1.4 1.1 0 2-.1 2.8-.4s1.5-.7 2.4-1.2l1.4 3.5c-.8.7-1.8 1.3-3.1 1.8s-2.6.6-4.1.6zm-.3-17.9c-.9 0-1.6.4-2.1 1.2-.5.8-.7 2-.9 3.4h5.3v-.5c0-1.3-.2-2.3-.5-3.1-.3-.6-1-1-1.8-1z" fill="#ffffff" data-color="3"></path>
        <path d="M496.2 828.8c0-3.4.6-6.1 1.9-8.1 1.3-2.1 3-3.1 5.3-3.1 1 0 1.9.2 2.6.7.7.5 1.4 1.2 2 2.1l.4-2.5h4.9v21.3c0 2.8-.8 4.9-2.4 6.5-1.6 1.5-3.9 2.3-6.8 2.3-1 0-2-.1-3-.4-1.1-.3-2-.7-3-1.2l.9-4.2c.8.4 1.6.7 2.4 1 .8.2 1.7.3 2.6.3 1.2 0 2.2-.3 2.8-1s.9-1.7.9-3.2v-1.6c-.5.7-1.2 1.2-1.9 1.6-.7.4-1.5.5-2.4.5-2.3 0-4-1-5.3-2.9s-1.9-4.5-1.9-7.7v-.4zm5.6.4c0 2 .2 3.5.7 4.6.5 1.1 1.2 1.6 2.4 1.6.6 0 1.2-.1 1.6-.4.5-.3.8-.6 1.1-1.1v-10.1c-.3-.6-.7-1-1.1-1.3-.5-.3-1-.5-1.6-.5-1.1 0-1.9.6-2.3 1.9-.5 1.2-.7 2.9-.7 5v.3z" fill="#ffffff" data-color="3"></path>
        <path d="M528 836.4c-.6 1.1-1.3 2-2.1 2.6-.9.6-1.8.9-3 .9-1.9 0-3.4-.8-4.5-2.3s-1.7-3.9-1.7-7.2V818h5.6v12.4c0 1.9.2 3.2.6 4 .4.7 1 1.1 1.8 1.1.6 0 1.2-.1 1.7-.4s.9-.6 1.2-1.1v-16h5.6v21.4h-4.6l-.6-3z" fill="#ffffff" data-color="3"></path>
        <path d="m546.8 822.8-1.9-.1c-.6 0-1.1.2-1.6.5-.4.3-.7.8-1 1.4v14.8h-5.6V818h5.2l.2 3c.4-1.1.9-1.9 1.6-2.5s1.4-.9 2.2-.9c.3 0 .5 0 .7.1.2 0 .4.1.7.2l-.5 4.9z" fill="#ffffff" data-color="3"></path>
        <path d="M560.2 839.4c-.2-.5-.4-1-.5-1.5s-.2-1.1-.3-1.7c-.5 1.1-1.1 1.9-1.9 2.6-.8.7-1.7 1-2.8 1-2 0-3.5-.6-4.5-1.7s-1.6-2.7-1.6-4.7c0-2.1.7-3.7 2.1-4.9 1.4-1.2 3.4-1.7 6.2-1.7h2.4V825c0-1.1-.2-1.9-.6-2.5-.4-.6-1-.9-1.8-.9-.7 0-1.2.2-1.6.7s-.5 1.1-.5 2h-5.4v-.1c-.1-1.8.6-3.4 2.1-4.7 1.5-1.3 3.4-1.9 5.8-1.9 2.3 0 4.1.6 5.5 1.9s2.1 3.1 2.1 5.5v8.8c0 1 .1 2 .2 2.9s.4 1.8.7 2.7h-5.6zm-4.1-3.7c.7 0 1.4-.2 2-.7.6-.5 1-1 1.2-1.7V830h-2.4c-.9 0-1.6.3-2.1.9-.4.6-.6 1.4-.6 2.3 0 .7.2 1.3.5 1.8.3.4.8.7 1.4.7z" fill="#ffffff" data-color="3"></path>
        <path d="m573.6 818 .2 3c.6-1.1 1.4-1.9 2.2-2.5.9-.6 1.9-.9 2.9-.9 1.8 0 3.3.7 4.3 2.1 1 1.4 1.6 3.7 1.6 6.7v13h-5.6v-13c0-1.6-.2-2.8-.6-3.4-.4-.7-1-1-1.8-1-.6 0-1.2.1-1.7.4-.5.3-.9.7-1.3 1.2v15.8h-5.6V818h5.4z" fill="#ffffff" data-color="3"></path>
        <path d="M596.3 835.5c.8 0 1.4-.3 1.8-.9s.6-1.4.6-2.5h5.1l.1.1c0 2.2-.7 4.1-2.1 5.5-1.4 1.4-3.2 2.2-5.4 2.2-2.8 0-5-1-6.5-3s-2.2-4.6-2.2-7.8v-.6c0-3.2.7-5.8 2.2-7.8 1.5-2 3.6-3 6.4-3 2.3 0 4.2.7 5.5 2.2 1.4 1.5 2 3.5 2 6v.1h-5.1c0-1.2-.2-2.1-.6-2.9-.4-.7-1-1.1-1.8-1.1-1.2 0-2 .6-2.4 1.8s-.7 2.7-.7 4.7v.6c0 2 .2 3.6.7 4.7.4 1.1 1.2 1.7 2.4 1.7zm2.1 3.8-.2 1.2c.7.1 1.3.5 1.8 1s.7 1.3.7 2.4c0 1.4-.5 2.6-1.6 3.4s-2.6 1.3-4.6 1.3l-.1-3.1c.5 0 .9-.1 1.1-.4.3-.3.4-.7.4-1.3 0-.6-.2-1-.5-1.2s-.9-.4-1.8-.4l.6-2.8h4.2z" fill="#ffffff" data-color="3"></path>
        <path d="M617.4 839.4c-.2-.5-.4-1-.5-1.5s-.2-1.1-.3-1.7c-.5 1.1-1.1 1.9-1.9 2.6-.8.7-1.7 1-2.8 1-2 0-3.5-.6-4.5-1.7s-1.6-2.7-1.6-4.7c0-2.1.7-3.7 2.1-4.9 1.4-1.2 3.4-1.7 6.2-1.7h2.4V825c0-1.1-.2-1.9-.6-2.5-.4-.6-1-.9-1.8-.9-.7 0-1.2.2-1.6.7s-.5 1.1-.5 2h-5.4v-.1c-.1-1.8.6-3.4 2.1-4.7 1.5-1.3 3.4-1.9 5.8-1.9 2.3 0 4.1.6 5.5 1.9s2.1 3.1 2.1 5.5v8.8c0 1 .1 2 .2 2.9s.4 1.8.7 2.7h-5.6zm-4.1-3.7c.7 0 1.4-.2 2-.7.6-.5 1-1 1.2-1.7V830H614c-.9 0-1.6.3-2.1.9-.4.6-.6 1.4-.6 2.3 0 .7.2 1.3.5 1.8.4.4.9.7 1.5.7z" fill="#ffffff" data-color="3"></path>
    </g>
</svg>