<?xml version="1.0" encoding="utf-8"?>
<!-- Generator: Adobe Illustrator 23.0.2, SVG Export Plug-In . SVG Version: 6.00 Build 0)  -->
<svg version="1.1" id="Layer_1" xmlns="http://www.w3.org/2000/svg" xmlns:xlink="http://www.w3.org/1999/xlink" x="0px" y="0px"
	 viewBox="0 0 100 100" style="enable-background:new 0 0 100 100;" xml:space="preserve">
<style type="text/css">
	.st0{fill:#009A3C;}
</style>
<g>
	<path class="st0" d="M17.3,36.2C26.4,42.4,37.9,46,50,46c12.1,0,23.6-3.6,32.7-9.8L98.1,9.5c0.4-0.6-0.1-1.4-0.8-1.4h-37
		c-0.3,0-0.7,0.2-0.8,0.5l-8.6,14.9c-0.4,0.6-1.3,0.6-1.7,0L40.6,8.6c-0.2-0.3-0.5-0.5-0.8-0.5H2.7C2,8.1,1.5,8.9,1.9,9.5L17.3,36.2
		z"/>
	<path class="st0" d="M50,54c-8.8,0-17.4-1.7-25.2-4.8l24.4,42.2c0.4,0.6,1.3,0.6,1.7,0l24.4-42.2C67.4,52.3,58.8,54,50,54z"/>
</g>
</svg>
